<svg width="20" height="20" viewBox="0 0 20 20" fill="none" xmlns="http://www.w3.org/2000/svg">
<path d="M5.34996 14.7748C3.49163 13.5582 2.29163 11.7248 2.29163 10.1165C2.29163 7.38317 5.74163 4.03317 9.99996 4.03317C11.7416 4.03317 13.3583 4.59151 14.6583 5.45817" stroke="#BFC7D4" stroke-width="1.5" stroke-linecap="round" stroke-linejoin="round"/>
<path d="M16.5414 7.17517C17.2839 8.11684 17.7164 9.1585 17.7164 10.1168C17.7164 12.8502 14.2581 16.2002 9.99977 16.2002C9.24144 16.2002 8.50061 16.0918 7.80811 15.9002" stroke="#BFC7D4" stroke-width="1.5" stroke-linecap="round" stroke-linejoin="round"/>
<path d="M8.13804 11.9725C7.6422 11.4817 7.3647 10.8125 7.3672 10.115C7.36387 8.66083 8.54054 7.47916 9.99554 7.47666C10.6955 7.47499 11.3672 7.75249 11.8622 8.24749" stroke="#BFC7D4" stroke-width="1.5" stroke-linecap="round" stroke-linejoin="round"/>
<path d="M12.5912 10.5826C12.3962 11.6592 11.5537 12.5034 10.4771 12.7009" stroke="#BFC7D4" stroke-width="1.5" stroke-linecap="round" stroke-linejoin="round"/>
<path d="M16.5764 3.5416L3.4314 16.6866" stroke="#BFC7D4" stroke-width="1.5" stroke-linecap="round" stroke-linejoin="round"/>
</svg>
