<svg width="20" height="20" viewBox="0 0 20 20" fill="none" xmlns="http://www.w3.org/2000/svg">
<path fill-rule="evenodd" clip-rule="evenodd" d="M7.96543 17.8802C4.90543 17.8802 2.29126 17.4177 2.29126 15.5643C2.29126 13.711 4.88876 12.041 7.96543 12.041C11.0254 12.041 13.6388 13.6952 13.6388 15.5477C13.6388 17.4002 11.0421 17.8802 7.96543 17.8802Z" stroke="#657084" stroke-linecap="round" stroke-linejoin="round"/>
<path fill-rule="evenodd" clip-rule="evenodd" d="M7.96543 9.39791C9.97376 9.39791 11.6021 7.76957 11.6021 5.76124C11.6021 3.75291 9.97376 2.12457 7.96543 2.12457C5.95709 2.12457 4.32876 3.75291 4.32876 5.76124C4.32126 7.76291 5.93876 9.39124 7.93959 9.39791H7.96543Z" stroke="#657084" stroke-linecap="round" stroke-linejoin="round"/>
<path d="M14.001 8.39901C15.1702 8.08651 16.0319 7.02068 16.0319 5.75234C16.0327 4.42901 15.0935 3.32401 13.8452 3.06818" stroke="#657084" stroke-width="1.5" stroke-linecap="round" stroke-linejoin="round"/>
<path d="M14.5507 11.3779C16.2073 11.3779 17.6223 12.5013 17.6223 13.5038C17.6223 14.0946 17.1348 14.7013 16.3932 14.8754" stroke="#657084" stroke-width="1.5" stroke-linecap="round" stroke-linejoin="round"/>
</svg>
