<svg width="32" height="32" viewBox="0 0 32 32" fill="none" xmlns="http://www.w3.org/2000/svg">
<path fill-rule="evenodd" clip-rule="evenodd" d="M15.7928 28.8825C10.8704 28.8825 6.66675 28.1165 6.66675 25.0488C6.66675 21.9811 10.8437 19.1492 15.7928 19.1492C20.7152 19.1492 24.9189 21.9536 24.9189 25.0214C24.9189 28.0878 20.7419 28.8825 15.7928 28.8825Z" stroke="#657084" stroke-width="1.6" stroke-linecap="round" stroke-linejoin="round"/>
<path fill-rule="evenodd" clip-rule="evenodd" d="M15.7831 14.8981C19.0134 14.8981 21.6316 12.28 21.6316 9.04965C21.6316 5.81935 19.0134 3.19995 15.7831 3.19995C12.5528 3.19995 9.93338 5.81935 9.93338 9.04965C9.92247 12.269 12.5225 14.8872 15.7419 14.8981C15.7564 14.8981 15.7697 14.8981 15.7831 14.8981Z" stroke="#657084" stroke-width="1.6" stroke-linecap="round" stroke-linejoin="round"/>
</svg>
