<svg width="32" height="32" viewBox="0 0 32 32" fill="none" xmlns="http://www.w3.org/2000/svg">
<path fill-rule="evenodd" clip-rule="evenodd" d="M13.2586 4.33325H18.7413C21.192 4.33325 23.1333 4.33325 24.652 4.53725C26.2146 4.74792 27.48 5.19059 28.4786 6.18792C29.476 7.18659 29.9186 8.45192 30.1293 10.0146C30.2493 10.9119 30.2986 11.9559 30.3186 13.1653C30.3352 13.2667 30.337 13.37 30.324 13.4719C30.332 14.2257 30.3351 15.0435 30.3333 15.9253V16.0746C30.3333 18.5253 30.3333 20.4666 30.1293 21.9853C29.9186 23.5479 29.476 24.8133 28.4786 25.8119C27.48 26.8093 26.2146 27.2519 24.652 27.4626C23.132 27.6666 21.192 27.6666 18.7413 27.6666H13.2586C10.808 27.6666 8.86662 27.6666 7.34796 27.4626C5.78529 27.2519 4.51996 26.8093 3.52129 25.8119C2.52396 24.8133 2.08129 23.5479 1.87062 21.9853C1.66662 20.4653 1.66662 18.5253 1.66662 16.0746V15.9253C1.66484 15.0435 1.66796 14.2257 1.67596 13.4719C1.66251 13.37 1.66386 13.2667 1.67996 13.1653C1.70129 11.9559 1.75062 10.9119 1.87062 10.0146C2.08129 8.45192 2.52396 7.18659 3.52129 6.18792C4.51996 5.19059 5.78529 4.74792 7.34796 4.53725C8.86796 4.33325 10.808 4.33325 13.2586 4.33325ZM3.66929 14.3333C3.66751 14.8506 3.66662 15.4061 3.66662 15.9999C3.66662 18.5426 3.66929 20.3493 3.85329 21.7199C4.03329 23.0599 4.37196 23.8333 4.93596 24.3973C5.49996 24.9613 6.27329 25.2999 7.61462 25.4799C8.98529 25.6639 10.7906 25.6666 13.3333 25.6666H18.6666C21.2093 25.6666 23.016 25.6639 24.3866 25.4799C25.7266 25.2999 26.5 24.9613 27.064 24.3973C27.628 23.8333 27.9666 23.0599 28.1466 21.7186C28.3306 20.3479 28.3333 18.5426 28.3333 15.9999C28.3333 15.4061 28.3324 14.8506 28.3306 14.3333H3.66929ZM28.2986 12.3333H3.70129C3.72796 11.5506 3.77329 10.8746 3.85329 10.2799C4.03329 8.93992 4.37196 8.16659 4.93596 7.60259C5.49996 7.03859 6.27329 6.69992 7.61462 6.51992C8.98529 6.33592 10.7906 6.33325 13.3333 6.33325H18.6666C21.2093 6.33325 23.016 6.33592 24.3866 6.51992C25.7266 6.69992 26.5 7.03859 27.064 7.60259C27.628 8.16659 27.9666 8.93992 28.1466 10.2813C28.2266 10.8746 28.272 11.5506 28.2986 12.3333ZM6.99996 21.3333C6.99996 21.068 7.10531 20.8137 7.29285 20.6261C7.48039 20.4386 7.73474 20.3333 7.99996 20.3333H13.3333C13.5985 20.3333 13.8529 20.4386 14.0404 20.6261C14.2279 20.8137 14.3333 21.068 14.3333 21.3333C14.3333 21.5985 14.2279 21.8528 14.0404 22.0404C13.8529 22.2279 13.5985 22.3333 13.3333 22.3333H7.99996C7.73474 22.3333 7.48039 22.2279 7.29285 22.0404C7.10531 21.8528 6.99996 21.5985 6.99996 21.3333ZM15.6666 21.3333C15.6666 21.068 15.772 20.8137 15.9595 20.6261C16.1471 20.4386 16.4014 20.3333 16.6666 20.3333H18.6666C18.9318 20.3333 19.1862 20.4386 19.3737 20.6261C19.5613 20.8137 19.6666 21.068 19.6666 21.3333C19.6666 21.5985 19.5613 21.8528 19.3737 22.0404C19.1862 22.2279 18.9318 22.3333 18.6666 22.3333H16.6666C16.4014 22.3333 16.1471 22.2279 15.9595 22.0404C15.772 21.8528 15.6666 21.5985 15.6666 21.3333Z" fill="#657084"/>
</svg>
